<mxfile host="app.diagrams.net" agent="Mozilla/5.0 (Windows NT 10.0; Win64; x64) AppleWebKit/537.36 (KHTML, like Gecko) Chrome/118.0.0.0 Safari/537.36" version="28.0.7">
  <diagram name="第 1 页" id="HLIBXbJnJcEduxt7O0rW">
    <mxGraphModel dx="1383" dy="610" grid="1" gridSize="10" guides="1" tooltips="1" connect="1" arrows="1" fold="1" page="1" pageScale="1" pageWidth="827" pageHeight="1169" math="0" shadow="0">
      <root>
        <mxCell id="0" />
        <mxCell id="1" parent="0" />
        <mxCell id="_5t9rmLZjN3Kex7cL0qq-24" value="" style="group" vertex="1" connectable="0" parent="1">
          <mxGeometry x="150" y="200" width="550" height="570" as="geometry" />
        </mxCell>
        <mxCell id="_5t9rmLZjN3Kex7cL0qq-14" style="edgeStyle=orthogonalEdgeStyle;rounded=0;orthogonalLoop=1;jettySize=auto;html=1;exitX=0.5;exitY=1;exitDx=0;exitDy=0;entryX=0.5;entryY=0;entryDx=0;entryDy=0;" edge="1" parent="_5t9rmLZjN3Kex7cL0qq-24" source="_5t9rmLZjN3Kex7cL0qq-1" target="_5t9rmLZjN3Kex7cL0qq-2">
          <mxGeometry relative="1" as="geometry" />
        </mxCell>
        <mxCell id="_5t9rmLZjN3Kex7cL0qq-1" value="服务层" style="rounded=1;whiteSpace=wrap;html=1;shadow=1;fillColor=#CCE5FF;" vertex="1" parent="_5t9rmLZjN3Kex7cL0qq-24">
          <mxGeometry x="250" width="100" height="50" as="geometry" />
        </mxCell>
        <mxCell id="_5t9rmLZjN3Kex7cL0qq-15" style="edgeStyle=orthogonalEdgeStyle;rounded=0;orthogonalLoop=1;jettySize=auto;html=1;exitX=0;exitY=0.5;exitDx=0;exitDy=0;" edge="1" parent="_5t9rmLZjN3Kex7cL0qq-24" source="_5t9rmLZjN3Kex7cL0qq-2" target="_5t9rmLZjN3Kex7cL0qq-3">
          <mxGeometry relative="1" as="geometry" />
        </mxCell>
        <mxCell id="_5t9rmLZjN3Kex7cL0qq-2" value="数据路由" style="rhombus;whiteSpace=wrap;html=1;fillColor=#CCCCFF;shadow=1;" vertex="1" parent="_5t9rmLZjN3Kex7cL0qq-24">
          <mxGeometry x="260" y="100" width="80" height="80" as="geometry" />
        </mxCell>
        <mxCell id="_5t9rmLZjN3Kex7cL0qq-19" style="edgeStyle=orthogonalEdgeStyle;rounded=0;orthogonalLoop=1;jettySize=auto;html=1;entryX=0.5;entryY=0;entryDx=0;entryDy=0;" edge="1" parent="_5t9rmLZjN3Kex7cL0qq-24" target="_5t9rmLZjN3Kex7cL0qq-7">
          <mxGeometry relative="1" as="geometry">
            <mxPoint x="80" y="300" as="sourcePoint" />
          </mxGeometry>
        </mxCell>
        <mxCell id="_5t9rmLZjN3Kex7cL0qq-3" value="分布式缓存" style="verticalLabelPosition=bottom;verticalAlign=top;html=1;shape=mxgraph.basic.layered_rect;dx=10;outlineConnect=0;whiteSpace=wrap;fillColor=#CCFFE6;shadow=1;" vertex="1" parent="_5t9rmLZjN3Kex7cL0qq-24">
          <mxGeometry x="30" y="220" width="100" height="60" as="geometry" />
        </mxCell>
        <mxCell id="_5t9rmLZjN3Kex7cL0qq-4" value="关系&lt;br&gt;数据库" style="shape=cylinder3;whiteSpace=wrap;html=1;boundedLbl=1;backgroundOutline=1;size=15;fillColor=#FFFFCC;shadow=1;" vertex="1" parent="_5t9rmLZjN3Kex7cL0qq-24">
          <mxGeometry x="190" y="210" width="60" height="80" as="geometry" />
        </mxCell>
        <mxCell id="_5t9rmLZjN3Kex7cL0qq-6" value="文件存储" style="whiteSpace=wrap;html=1;shape=mxgraph.basic.document;fillColor=#F6FFEB;shadow=1;" vertex="1" parent="_5t9rmLZjN3Kex7cL0qq-24">
          <mxGeometry x="480" y="215" width="70" height="70" as="geometry" />
        </mxCell>
        <mxCell id="_5t9rmLZjN3Kex7cL0qq-7" value="Bloom Filter" style="shape=loopLimit;whiteSpace=wrap;html=1;fillColor=#CCE5FF;shadow=1;" vertex="1" parent="_5t9rmLZjN3Kex7cL0qq-24">
          <mxGeometry x="40" y="350" width="80" height="70" as="geometry" />
        </mxCell>
        <mxCell id="_5t9rmLZjN3Kex7cL0qq-23" style="edgeStyle=orthogonalEdgeStyle;rounded=0;orthogonalLoop=1;jettySize=auto;html=1;" edge="1" parent="_5t9rmLZjN3Kex7cL0qq-24">
          <mxGeometry relative="1" as="geometry">
            <mxPoint x="219.73000000000002" y="435" as="sourcePoint" />
            <mxPoint x="220" y="480" as="targetPoint" />
          </mxGeometry>
        </mxCell>
        <mxCell id="_5t9rmLZjN3Kex7cL0qq-8" value="Canal" style="verticalLabelPosition=bottom;verticalAlign=top;html=1;shape=mxgraph.flowchart.parallel_mode;pointerEvents=1;fillColor=#FFFFCC;shadow=1;" vertex="1" parent="_5t9rmLZjN3Kex7cL0qq-24">
          <mxGeometry x="170" y="357.5" width="100" height="55" as="geometry" />
        </mxCell>
        <mxCell id="_5t9rmLZjN3Kex7cL0qq-10" value="数据仓库" style="shape=datastore;whiteSpace=wrap;html=1;fillColor=#FFFFCC;shadow=1;" vertex="1" parent="_5t9rmLZjN3Kex7cL0qq-24">
          <mxGeometry x="175" y="480" width="90" height="90" as="geometry" />
        </mxCell>
        <mxCell id="_5t9rmLZjN3Kex7cL0qq-13" value="搜索引擎" style="shape=dataStorage;whiteSpace=wrap;html=1;fixedSize=1;fillColor=#FFF2CC;shadow=1;" vertex="1" parent="_5t9rmLZjN3Kex7cL0qq-24">
          <mxGeometry x="320" y="215" width="100" height="70" as="geometry" />
        </mxCell>
        <mxCell id="_5t9rmLZjN3Kex7cL0qq-16" style="edgeStyle=orthogonalEdgeStyle;rounded=0;orthogonalLoop=1;jettySize=auto;html=1;exitX=0;exitY=0.5;exitDx=0;exitDy=0;entryX=0.5;entryY=0;entryDx=0;entryDy=0;entryPerimeter=0;" edge="1" parent="_5t9rmLZjN3Kex7cL0qq-24" source="_5t9rmLZjN3Kex7cL0qq-2" target="_5t9rmLZjN3Kex7cL0qq-4">
          <mxGeometry relative="1" as="geometry" />
        </mxCell>
        <mxCell id="_5t9rmLZjN3Kex7cL0qq-17" style="edgeStyle=orthogonalEdgeStyle;rounded=0;orthogonalLoop=1;jettySize=auto;html=1;exitX=1;exitY=0.5;exitDx=0;exitDy=0;entryX=0.539;entryY=-0.01;entryDx=0;entryDy=0;entryPerimeter=0;" edge="1" parent="_5t9rmLZjN3Kex7cL0qq-24" source="_5t9rmLZjN3Kex7cL0qq-2" target="_5t9rmLZjN3Kex7cL0qq-13">
          <mxGeometry relative="1" as="geometry" />
        </mxCell>
        <mxCell id="_5t9rmLZjN3Kex7cL0qq-18" style="edgeStyle=orthogonalEdgeStyle;rounded=0;orthogonalLoop=1;jettySize=auto;html=1;exitX=1;exitY=0.5;exitDx=0;exitDy=0;entryX=0.5;entryY=0;entryDx=0;entryDy=0;entryPerimeter=0;" edge="1" parent="_5t9rmLZjN3Kex7cL0qq-24" source="_5t9rmLZjN3Kex7cL0qq-2" target="_5t9rmLZjN3Kex7cL0qq-6">
          <mxGeometry relative="1" as="geometry" />
        </mxCell>
        <mxCell id="_5t9rmLZjN3Kex7cL0qq-20" value="缓存击穿防护" style="text;strokeColor=none;align=center;fillColor=none;html=1;verticalAlign=middle;whiteSpace=wrap;rounded=0;" vertex="1" parent="_5t9rmLZjN3Kex7cL0qq-24">
          <mxGeometry y="310" width="80" height="25" as="geometry" />
        </mxCell>
        <mxCell id="_5t9rmLZjN3Kex7cL0qq-21" style="edgeStyle=orthogonalEdgeStyle;rounded=0;orthogonalLoop=1;jettySize=auto;html=1;entryX=0.5;entryY=0;entryDx=0;entryDy=0;entryPerimeter=0;" edge="1" parent="_5t9rmLZjN3Kex7cL0qq-24" source="_5t9rmLZjN3Kex7cL0qq-4" target="_5t9rmLZjN3Kex7cL0qq-8">
          <mxGeometry relative="1" as="geometry" />
        </mxCell>
        <mxCell id="_5t9rmLZjN3Kex7cL0qq-22" value="数据同步" style="text;strokeColor=none;align=center;fillColor=none;html=1;verticalAlign=middle;whiteSpace=wrap;rounded=0;" vertex="1" parent="_5t9rmLZjN3Kex7cL0qq-24">
          <mxGeometry x="230" y="310" width="55" height="20" as="geometry" />
        </mxCell>
      </root>
    </mxGraphModel>
  </diagram>
</mxfile>
